<svg width="32" height="32" viewBox="0 0 32 32" fill="none" xmlns="http://www.w3.org/2000/svg">
  <rect width="32" height="32" rx="8" fill="#0ea5e9"/>
  <path d="M8 16C8 11.5817 11.5817 8 16 8C20.4183 8 24 11.5817 24 16C24 20.4183 20.4183 24 16 24C11.5817 24 8 20.4183 8 16Z" fill="white"/>
  <path d="M16 12C14.8954 12 14 12.8954 14 14C14 15.1046 14.8954 16 16 16C17.1046 16 18 15.1046 18 14C18 12.8954 17.1046 12 16 12Z" fill="#0ea5e9"/>
  <path d="M12 18C12 16.8954 12.8954 16 14 16H18C19.1046 16 20 16.8954 20 18C20 19.1046 19.1046 20 18 20H14C12.8954 20 12 19.1046 12 18Z" fill="#0ea5e9"/>
</svg>